<svg id="Layer_1" data-name="Layer 1" xmlns="http://www.w3.org/2000/svg" viewBox="0 0 1120 1120"><defs><style>.cls-1{fill:#fff;}</style></defs><path fill="#65b0bd" d="M719.17,782.81c-52.92,77.35-96.42,134.1-97,134.84a78.45,78.45,0,0,1-124.43,0c-.57-.74-43.57-56.85-96.12-133.6C297.32,811,226.57,863.2,226.57,923.23c0,87.57,150.57,158.57,336.3,158.57s336.3-71,336.3-158.57C899.17,862.26,826.18,809.34,719.17,782.81Z"/><path fill="#006778" d="M560,898.31h0a28.44,28.44,0,0,1-22.56-11.12c-.73-1-73.28-95.6-144.81-207.18-42.26-65.9-76-124.89-100.28-175.3C260.26,438.16,244.68,387,244.68,348.43V345c0-74.07,27.73-145.92,78.09-202.33A312.41,312.41,0,0,1,520.83,40.4C615.26,29.67,708.64,58.53,777,119.58a296.3,296.3,0,0,1,71.74,95.9,280.16,280.16,0,0,1,26.55,119.43v13.52c0,38.61-15.58,89.73-47.65,156.28-24.29,50.42-58,109.4-100.3,175.3C655.82,791.59,583.26,886.25,582.54,887.19A28.47,28.47,0,0,1,560,898.31Z"/><path class="cls-1" d="M353.59,408.56a20.09,20.09,0,0,0,20.09-20.09V384.3h21.49a165.35,165.35,0,0,0,34.12,82.2l-15.24,15.24-2.95-2.94a20.09,20.09,0,0,0-28.42,28.41L417,541.52a20.09,20.09,0,1,0,28.42-28.41l-3-2.95,15.25-15.25A165.19,165.19,0,0,0,539.91,529v21.49h-4.17a20.1,20.1,0,0,0,0,40.19h48.52a20.1,20.1,0,0,0,0-40.19h-4.17V529a165.19,165.19,0,0,0,79.67-32.17c.85-.64,1.69-1.29,2.53-1.95l15.25,15.25-2.95,2.95A20.09,20.09,0,1,0,703,541.52l34.31-34.31A20.09,20.09,0,1,0,708.9,478.8L706,481.74,690.71,466.5a165.25,165.25,0,0,0,34.11-82.2h21.5v4.17a20.09,20.09,0,0,0,40.18,0V340a20.09,20.09,0,1,0-40.18,0v4.16h-21.5a165.25,165.25,0,0,0-34.11-82.2L706,246.67l2.95,3a20.09,20.09,0,1,0,28.41-28.42L703,186.89a20.09,20.09,0,0,0-28.41,28.42l2.95,2.94L662.29,233.5c-1.6-1.25-3.23-2.47-4.87-3.67a165.19,165.19,0,0,0-77.33-30.45V177.89h4.17a20.09,20.09,0,1,0,0-40.18H535.74a20.09,20.09,0,0,0,0,40.18h4.17v21.49a165.19,165.19,0,0,0-82.2,34.12l-15.25-15.25,3-2.94A20.1,20.1,0,1,0,417,186.89L382.68,221.2a20.1,20.1,0,0,0,28.42,28.42l2.95-3,15.24,15.24a165.35,165.35,0,0,0-34.12,82.2H373.68V340a20.09,20.09,0,1,0-40.18,0v48.52A20.1,20.1,0,0,0,353.59,408.56ZM560,238.35A125.86,125.86,0,1,1,434.14,364.21,125.68,125.68,0,0,1,560,238.35Z"/><path class="cls-1" d="M502.14,314.26a19.58,19.58,0,1,0-19.58-19.58A19.58,19.58,0,0,0,502.14,314.26Z"/><path class="cls-1" d="M502.14,448.66a19.58,19.58,0,1,0,19.58-19.58A19.59,19.59,0,0,0,502.14,448.66Z"/><path class="cls-1" d="M560.88,379.11a19.58,19.58,0,1,0-19.58-19.58A19.59,19.59,0,0,0,560.88,379.11Z"/><path class="cls-1" d="M475.86,388.47a19.59,19.59,0,1,0-19.58-19.58A19.58,19.58,0,0,0,475.86,388.47Z"/><path class="cls-1" d="M588.85,305.1a19.58,19.58,0,1,0-19.58-19.58A19.58,19.58,0,0,0,588.85,305.1Z"/><path class="cls-1" d="M594,433.54A19.59,19.59,0,1,0,613.53,414,19.58,19.58,0,0,0,594,433.54Z"/><path class="cls-1" d="M661.77,359.53A19.57,19.57,0,0,0,642.19,340a20.58,20.58,0,0,0-2.5.17A19.57,19.57,0,0,0,640,379a19.27,19.27,0,0,0,2.16.13A19.58,19.58,0,0,0,661.77,359.53Z"/></svg>